<?xml version="1.0" standalone="no"?>
<!DOCTYPE svg PUBLIC "-//W3C//DTD SVG 20010904//EN"
 "http://www.w3.org/TR/2001/REC-SVG-20010904/DTD/svg10.dtd">
<svg version="1.0" xmlns="http://www.w3.org/2000/svg"
 width="207.000000pt" height="215.000000pt" viewBox="0 0 207.000000 215.000000"
 preserveAspectRatio="xMidYMid meet">

<g transform="translate(0.000000,215.000000) scale(0.100000,-0.100000)"
fill="#000000" stroke="none">
<path d="M970 2123 c0 -13 -4 -23 -10 -23 -5 0 -7 -6 -4 -13 3 -10 -5 -12 -32
-9 -26 3 -35 1 -30 -7 10 -16 -110 -12 -144 4 -21 10 -28 10 -44 -6 -10 -10
-32 -21 -50 -25 -17 -4 -44 -17 -59 -30 -16 -13 -37 -24 -48 -24 -28 0 -79
-28 -79 -43 0 -7 -12 -20 -28 -29 -48 -28 -82 -66 -82 -91 0 -14 -14 -35 -35
-54 -21 -19 -35 -40 -35 -55 0 -18 2 -20 10 -8 5 8 12 11 16 7 4 -4 -8 -24
-28 -45 -21 -21 -39 -52 -43 -72 l-6 -35 20 25 c11 14 21 20 21 13 0 -8 13 -4
34 10 72 49 356 98 571 99 119 0 386 -24 523 -47 30 -6 39 -1 77 37 45 45 68
99 47 106 -7 2 -12 8 -12 14 0 5 -7 16 -15 24 -8 9 -15 33 -15 55 0 26 -4 38
-10 34 -6 -4 -34 17 -62 45 -28 29 -66 59 -84 66 -40 17 -47 17 -39 4 11 -18
-20 -10 -55 14 -28 19 -39 21 -57 13 -16 -7 -30 -7 -46 0 -13 6 -35 9 -50 6
-17 -3 -37 2 -54 13 -16 10 -32 19 -36 19 -4 0 -12 7 -17 15 -8 12 -10 11 -10
-7z"/>
<path d="M685 1678 c-105 -10 -315 -57 -364 -83 -64 -32 -107 -159 -98 -284 5
-65 13 -90 65 -196 73 -147 122 -283 122 -336 0 -21 4 -39 9 -39 5 0 35 15 68
33 32 18 78 41 103 52 63 26 66 30 79 79 10 39 7 53 -25 147 -33 93 -35 107
-24 141 24 84 99 128 178 106 45 -12 78 -41 103 -91 20 -37 21 -38 72 -35 l52
3 5 40 c3 23 15 56 27 75 28 46 107 121 161 154 23 14 42 30 42 34 0 4 -15 30
-34 58 -19 28 -41 67 -49 87 -12 29 -22 37 -49 41 -45 7 -296 26 -322 25 -12
-1 -66 -6 -121 -11z"/>
<path d="M1408 1298 c-37 -22 -53 -46 -22 -34 41 16 92 17 126 3 20 -8 39 -13
42 -9 12 12 5 50 -10 56 -33 13 -100 5 -136 -16z"/>
<path d="M916 1133 c-11 -38 -31 -273 -30 -368 0 -83 4 -107 22 -142 12 -23
22 -49 22 -58 0 -8 7 -15 15 -15 8 0 19 -9 25 -21 7 -11 14 -18 17 -15 7 7 33
-21 120 -126 36 -43 69 -78 73 -78 5 0 14 -17 20 -37 13 -40 75 -113 96 -113
7 0 16 -9 19 -20 4 -12 24 -32 46 -46 22 -14 43 -32 46 -40 3 -8 11 -13 18
-10 7 2 17 -6 24 -20 18 -39 66 -29 84 18 3 10 13 18 21 18 8 0 17 15 20 35 4
20 11 33 17 30 5 -4 9 9 9 29 0 20 4 36 9 36 6 0 7 16 4 37 -5 28 -3 34 7 28
10 -6 11 -1 5 26 -13 57 -14 94 -3 100 7 5 6 18 -2 43 -6 20 -9 43 -6 51 3 8
-1 27 -9 42 -8 16 -16 39 -19 53 -3 14 -12 34 -20 45 -14 19 -15 19 -30 -17
-38 -90 -132 -73 -150 27 -4 19 -3 43 3 52 12 23 61 47 132 67 46 13 58 21 63
41 11 45 -11 95 -29 65 -3 -5 -13 -10 -20 -10 -8 0 -49 -23 -91 -50 -42 -28
-87 -50 -101 -50 -26 0 -122 45 -138 65 -5 7 -43 33 -83 58 -104 67 -135 131
-114 240 l9 47 -48 0 c-37 0 -49 -4 -53 -17z"/>
</g>
</svg>
